<?xml version="1.0" encoding="utf-8" standalone="no"?>
<!DOCTYPE svg PUBLIC "-//W3C//DTD SVG 1.1//EN"
  "http://www.w3.org/Graphics/SVG/1.1/DTD/svg11.dtd">
<svg xmlns:xlink="http://www.w3.org/1999/xlink" width="810pt" height="472.32pt" viewBox="0 0 810 472.32" xmlns="http://www.w3.org/2000/svg" version="1.1">
 <metadata>
  <rdf:RDF xmlns:dc="http://purl.org/dc/elements/1.1/" xmlns:cc="http://creativecommons.org/ns#" xmlns:rdf="http://www.w3.org/1999/02/22-rdf-syntax-ns#">
   <cc:Work>
    <dc:type rdf:resource="http://purl.org/dc/dcmitype/StillImage"/>
    <dc:date>2026-02-13T14:53:46.254925</dc:date>
    <dc:format>image/svg+xml</dc:format>
    <dc:creator>
     <cc:Agent>
      <dc:title>Matplotlib v3.9.4, https://matplotlib.org/</dc:title>
     </cc:Agent>
    </dc:creator>
   </cc:Work>
  </rdf:RDF>
 </metadata>
 <defs>
  <style type="text/css">*{stroke-linejoin: round; stroke-linecap: butt}</style>
 </defs>
 <g id="figure_1">
  <g id="patch_1">
   <path d="M 0 472.32 
L 810 472.32 
L 810 0 
L 0 0 
z
" style="fill: #0f1117"/>
  </g>
  <g id="axes_1">
   <g id="patch_2">
    <path d="M 73.7712 309.78432 
L 183.1392 309.78432 
Q 200.3256 309.78432 200.3256 300.02688 
L 200.3256 181.16352 
Q 200.3256 171.40608 183.1392 171.40608 
L 73.7712 171.40608 
Q 56.5848 171.40608 56.5848 181.16352 
L 56.5848 300.02688 
Q 56.5848 309.78432 73.7712 309.78432 
z
" clip-path="url(#p3e2e943f19)" style="fill: #263040; stroke: #6f7384; stroke-width: 1.5; stroke-linejoin: miter"/>
   </g>
   <g id="patch_3">
    <path d="M 84.708 202.45248 
C 89.68024 202.45248 94.449499 201.33091 97.965404 199.334784 
C 101.481308 197.338658 103.4568 194.630949 103.4568 191.808 
C 103.4568 188.985051 101.481308 186.277342 97.965404 184.281216 
C 94.449499 182.28509 89.68024 181.16352 84.708 181.16352 
C 79.73576 181.16352 74.966501 182.28509 71.450596 184.281216 
C 67.934692 186.277342 65.9592 188.985051 65.9592 191.808 
C 65.9592 194.630949 67.934692 197.338658 71.450596 199.334784 
C 74.966501 201.33091 79.73576 202.45248 84.708 202.45248 
z
" clip-path="url(#p3e2e943f19)" style="fill: #101319; stroke: #73778a; stroke-linejoin: miter"/>
   </g>
   <g id="patch_4">
    <path d="M 199.201099 240.5952 
Q 201.888973 240.5952 203.235207 240.5952 
" clip-path="url(#p3e2e943f19)" style="fill: none; stroke: #8a8fa3; stroke-width: 1.2; stroke-linecap: round"/>
    <path d="M 198.435207 238.1952 
L 203.235207 240.5952 
L 198.435207 242.9952 
z
" clip-path="url(#p3e2e943f19)" style="fill: #8a8fa3; stroke: #8a8fa3; stroke-width: 1.2; stroke-linecap: round"/>
   </g>
   <g id="patch_5">
    <path d="M 219.8556 309.78432 
L 329.2236 309.78432 
Q 346.41 309.78432 346.41 300.02688 
L 346.41 181.16352 
Q 346.41 171.40608 329.2236 171.40608 
L 219.8556 171.40608 
Q 202.6692 171.40608 202.6692 181.16352 
L 202.6692 300.02688 
Q 202.6692 309.78432 219.8556 309.78432 
z
" clip-path="url(#p3e2e943f19)" style="fill: #2f304a; stroke: #6f7384; stroke-width: 1.5; stroke-linejoin: miter"/>
   </g>
   <g id="patch_6">
    <path d="M 230.7924 202.45248 
C 235.76464 202.45248 240.533899 201.33091 244.049804 199.334784 
C 247.565708 197.338658 249.5412 194.630949 249.5412 191.808 
C 249.5412 188.985051 247.565708 186.277342 244.049804 184.281216 
C 240.533899 182.28509 235.76464 181.16352 230.7924 181.16352 
C 225.82016 181.16352 221.050901 182.28509 217.534996 184.281216 
C 214.019092 186.277342 212.0436 188.985051 212.0436 191.808 
C 212.0436 194.630949 214.019092 197.338658 217.534996 199.334784 
C 221.050901 201.33091 225.82016 202.45248 230.7924 202.45248 
z
" clip-path="url(#p3e2e943f19)" style="fill: #101319; stroke: #73778a; stroke-linejoin: miter"/>
   </g>
   <g id="patch_7">
    <path d="M 345.285499 240.5952 
Q 347.973373 240.5952 349.319607 240.5952 
" clip-path="url(#p3e2e943f19)" style="fill: none; stroke: #8a8fa3; stroke-width: 1.2; stroke-linecap: round"/>
    <path d="M 344.519607 238.1952 
L 349.319607 240.5952 
L 344.519607 242.9952 
z
" clip-path="url(#p3e2e943f19)" style="fill: #8a8fa3; stroke: #8a8fa3; stroke-width: 1.2; stroke-linecap: round"/>
   </g>
   <g id="patch_8">
    <path d="M 365.94 309.78432 
L 475.308 309.78432 
Q 492.4944 309.78432 492.4944 300.02688 
L 492.4944 181.16352 
Q 492.4944 171.40608 475.308 171.40608 
L 365.94 171.40608 
Q 348.7536 171.40608 348.7536 181.16352 
L 348.7536 300.02688 
Q 348.7536 309.78432 365.94 309.78432 
z
" clip-path="url(#p3e2e943f19)" style="fill: #3a2f4f; stroke: #6f7384; stroke-width: 1.5; stroke-linejoin: miter"/>
   </g>
   <g id="patch_9">
    <path d="M 376.8768 202.45248 
C 381.84904 202.45248 386.618299 201.33091 390.134204 199.334784 
C 393.650108 197.338658 395.6256 194.630949 395.6256 191.808 
C 395.6256 188.985051 393.650108 186.277342 390.134204 184.281216 
C 386.618299 182.28509 381.84904 181.16352 376.8768 181.16352 
C 371.90456 181.16352 367.135301 182.28509 363.619396 184.281216 
C 360.103492 186.277342 358.128 188.985051 358.128 191.808 
C 358.128 194.630949 360.103492 197.338658 363.619396 199.334784 
C 367.135301 201.33091 371.90456 202.45248 376.8768 202.45248 
z
" clip-path="url(#p3e2e943f19)" style="fill: #101319; stroke: #73778a; stroke-linejoin: miter"/>
   </g>
   <g id="patch_10">
    <path d="M 491.369899 240.5952 
Q 494.057773 240.5952 495.404007 240.5952 
" clip-path="url(#p3e2e943f19)" style="fill: none; stroke: #8a8fa3; stroke-width: 1.2; stroke-linecap: round"/>
    <path d="M 490.604007 238.1952 
L 495.404007 240.5952 
L 490.604007 242.9952 
z
" clip-path="url(#p3e2e943f19)" style="fill: #8a8fa3; stroke: #8a8fa3; stroke-width: 1.2; stroke-linecap: round"/>
   </g>
   <g id="patch_11">
    <path d="M 512.0244 309.78432 
L 621.3924 309.78432 
Q 638.5788 309.78432 638.5788 300.02688 
L 638.5788 181.16352 
Q 638.5788 171.40608 621.3924 171.40608 
L 512.0244 171.40608 
Q 494.838 171.40608 494.838 181.16352 
L 494.838 300.02688 
Q 494.838 309.78432 512.0244 309.78432 
z
" clip-path="url(#p3e2e943f19)" style="fill: #4a2e46; stroke: #6f7384; stroke-width: 1.5; stroke-linejoin: miter"/>
   </g>
   <g id="patch_12">
    <path d="M 522.9612 202.45248 
C 527.93344 202.45248 532.702699 201.33091 536.218604 199.334784 
C 539.734508 197.338658 541.71 194.630949 541.71 191.808 
C 541.71 188.985051 539.734508 186.277342 536.218604 184.281216 
C 532.702699 182.28509 527.93344 181.16352 522.9612 181.16352 
C 517.98896 181.16352 513.219701 182.28509 509.703796 184.281216 
C 506.187892 186.277342 504.2124 188.985051 504.2124 191.808 
C 504.2124 194.630949 506.187892 197.338658 509.703796 199.334784 
C 513.219701 201.33091 517.98896 202.45248 522.9612 202.45248 
z
" clip-path="url(#p3e2e943f19)" style="fill: #101319; stroke: #73778a; stroke-linejoin: miter"/>
   </g>
   <g id="patch_13">
    <path d="M 637.454299 240.5952 
Q 640.142173 240.5952 641.488407 240.5952 
" clip-path="url(#p3e2e943f19)" style="fill: none; stroke: #8a8fa3; stroke-width: 1.2; stroke-linecap: round"/>
    <path d="M 636.688407 238.1952 
L 641.488407 240.5952 
L 636.688407 242.9952 
z
" clip-path="url(#p3e2e943f19)" style="fill: #8a8fa3; stroke: #8a8fa3; stroke-width: 1.2; stroke-linecap: round"/>
   </g>
   <g id="patch_14">
    <path d="M 658.1088 309.78432 
L 767.4768 309.78432 
Q 784.6632 309.78432 784.6632 300.02688 
L 784.6632 181.16352 
Q 784.6632 171.40608 767.4768 171.40608 
L 658.1088 171.40608 
Q 640.9224 171.40608 640.9224 181.16352 
L 640.9224 300.02688 
Q 640.9224 309.78432 658.1088 309.78432 
z
" clip-path="url(#p3e2e943f19)" style="fill: #5c2c3d; stroke: #6f7384; stroke-width: 1.5; stroke-linejoin: miter"/>
   </g>
   <g id="patch_15">
    <path d="M 669.0456 202.45248 
C 674.01784 202.45248 678.787099 201.33091 682.303004 199.334784 
C 685.818908 197.338658 687.7944 194.630949 687.7944 191.808 
C 687.7944 188.985051 685.818908 186.277342 682.303004 184.281216 
C 678.787099 182.28509 674.01784 181.16352 669.0456 181.16352 
C 664.07336 181.16352 659.304101 182.28509 655.788196 184.281216 
C 652.272292 186.277342 650.2968 188.985051 650.2968 191.808 
C 650.2968 194.630949 652.272292 197.338658 655.788196 199.334784 
C 659.304101 201.33091 664.07336 202.45248 669.0456 202.45248 
z
" clip-path="url(#p3e2e943f19)" style="fill: #101319; stroke: #73778a; stroke-linejoin: miter"/>
   </g>
   <g id="patch_16">
    <path d="M 51.552699 347.04 
Q 406.953075 347.04 760.564597 347.04 
" clip-path="url(#p3e2e943f19)" style="fill: none; stroke: #7f859a; stroke-width: 1.6; stroke-linecap: round"/>
    <path d="M 754.164597 343.84 
L 760.564597 347.04 
L 754.164597 350.24 
z
" clip-path="url(#p3e2e943f19)" style="fill: #7f859a; stroke: #7f859a; stroke-width: 1.6; stroke-linecap: round"/>
   </g>
   <g id="line2d_1">
    <path d="M 207.3564 116.4096 
L 207.3564 138.5856 
L 633.8916 138.5856 
L 633.8916 116.4096 
" clip-path="url(#p3e2e943f19)" style="fill: none; stroke: #59d6c2; stroke-width: 2.2; stroke-linecap: square"/>
   </g>
   <g id="text_1">
    <!-- Figure 1. The Governance Window -->
    <g style="fill: #e9eefc" transform="translate(45.648 36.576) scale(0.25 -0.25)">
     <defs>
      <path id="DejaVuSans-Bold-46" d="M 588 4666 
L 3834 4666 
L 3834 3756 
L 1791 3756 
L 1791 2888 
L 3713 2888 
L 3713 1978 
L 1791 1978 
L 1791 0 
L 588 0 
L 588 4666 
z
" transform="scale(0.015625)"/>
      <path id="DejaVuSans-Bold-69" d="M 538 3500 
L 1656 3500 
L 1656 0 
L 538 0 
L 538 3500 
z
M 538 4863 
L 1656 4863 
L 1656 3950 
L 538 3950 
L 538 4863 
z
" transform="scale(0.015625)"/>
      <path id="DejaVuSans-Bold-67" d="M 2919 594 
Q 2688 288 2409 144 
Q 2131 0 1766 0 
Q 1125 0 706 504 
Q 288 1009 288 1791 
Q 288 2575 706 3076 
Q 1125 3578 1766 3578 
Q 2131 3578 2409 3434 
Q 2688 3291 2919 2981 
L 2919 3500 
L 4044 3500 
L 4044 353 
Q 4044 -491 3511 -936 
Q 2978 -1381 1966 -1381 
Q 1638 -1381 1331 -1331 
Q 1025 -1281 716 -1178 
L 716 -306 
Q 1009 -475 1290 -558 
Q 1572 -641 1856 -641 
Q 2406 -641 2662 -400 
Q 2919 -159 2919 353 
L 2919 594 
z
M 2181 2772 
Q 1834 2772 1640 2515 
Q 1447 2259 1447 1791 
Q 1447 1309 1634 1061 
Q 1822 813 2181 813 
Q 2531 813 2725 1069 
Q 2919 1325 2919 1791 
Q 2919 2259 2725 2515 
Q 2531 2772 2181 2772 
z
" transform="scale(0.015625)"/>
      <path id="DejaVuSans-Bold-75" d="M 500 1363 
L 500 3500 
L 1625 3500 
L 1625 3150 
Q 1625 2866 1622 2436 
Q 1619 2006 1619 1863 
Q 1619 1441 1641 1255 
Q 1663 1069 1716 984 
Q 1784 875 1895 815 
Q 2006 756 2150 756 
Q 2500 756 2700 1025 
Q 2900 1294 2900 1772 
L 2900 3500 
L 4019 3500 
L 4019 0 
L 2900 0 
L 2900 506 
Q 2647 200 2364 54 
Q 2081 -91 1741 -91 
Q 1134 -91 817 281 
Q 500 653 500 1363 
z
" transform="scale(0.015625)"/>
      <path id="DejaVuSans-Bold-72" d="M 3138 2547 
Q 2991 2616 2845 2648 
Q 2700 2681 2553 2681 
Q 2122 2681 1889 2404 
Q 1656 2128 1656 1613 
L 1656 0 
L 538 0 
L 538 3500 
L 1656 3500 
L 1656 2925 
Q 1872 3269 2151 3426 
Q 2431 3584 2822 3584 
Q 2878 3584 2943 3579 
Q 3009 3575 3134 3559 
L 3138 2547 
z
" transform="scale(0.015625)"/>
      <path id="DejaVuSans-Bold-65" d="M 4031 1759 
L 4031 1441 
L 1416 1441 
Q 1456 1047 1700 850 
Q 1944 653 2381 653 
Q 2734 653 3104 758 
Q 3475 863 3866 1075 
L 3866 213 
Q 3469 63 3072 -14 
Q 2675 -91 2278 -91 
Q 1328 -91 801 392 
Q 275 875 275 1747 
Q 275 2603 792 3093 
Q 1309 3584 2216 3584 
Q 3041 3584 3536 3087 
Q 4031 2591 4031 1759 
z
M 2881 2131 
Q 2881 2450 2695 2645 
Q 2509 2841 2209 2841 
Q 1884 2841 1681 2658 
Q 1478 2475 1428 2131 
L 2881 2131 
z
" transform="scale(0.015625)"/>
      <path id="DejaVuSans-Bold-20" transform="scale(0.015625)"/>
      <path id="DejaVuSans-Bold-31" d="M 750 831 
L 1813 831 
L 1813 3847 
L 722 3622 
L 722 4441 
L 1806 4666 
L 2950 4666 
L 2950 831 
L 4013 831 
L 4013 0 
L 750 0 
L 750 831 
z
" transform="scale(0.015625)"/>
      <path id="DejaVuSans-Bold-2e" d="M 653 1209 
L 1778 1209 
L 1778 0 
L 653 0 
L 653 1209 
z
" transform="scale(0.015625)"/>
      <path id="DejaVuSans-Bold-54" d="M 31 4666 
L 4331 4666 
L 4331 3756 
L 2784 3756 
L 2784 0 
L 1581 0 
L 1581 3756 
L 31 3756 
L 31 4666 
z
" transform="scale(0.015625)"/>
      <path id="DejaVuSans-Bold-68" d="M 4056 2131 
L 4056 0 
L 2931 0 
L 2931 347 
L 2931 1625 
Q 2931 2084 2911 2256 
Q 2891 2428 2841 2509 
Q 2775 2619 2662 2680 
Q 2550 2741 2406 2741 
Q 2056 2741 1856 2470 
Q 1656 2200 1656 1722 
L 1656 0 
L 538 0 
L 538 4863 
L 1656 4863 
L 1656 2988 
Q 1909 3294 2193 3439 
Q 2478 3584 2822 3584 
Q 3428 3584 3742 3212 
Q 4056 2841 4056 2131 
z
" transform="scale(0.015625)"/>
      <path id="DejaVuSans-Bold-47" d="M 4781 347 
Q 4331 128 3847 18 
Q 3363 -91 2847 -91 
Q 1681 -91 1000 561 
Q 319 1213 319 2328 
Q 319 3456 1012 4103 
Q 1706 4750 2913 4750 
Q 3378 4750 3804 4662 
Q 4231 4575 4609 4403 
L 4609 3438 
Q 4219 3659 3833 3768 
Q 3447 3878 3059 3878 
Q 2341 3878 1952 3476 
Q 1563 3075 1563 2328 
Q 1563 1588 1938 1184 
Q 2313 781 3003 781 
Q 3191 781 3352 804 
Q 3513 828 3641 878 
L 3641 1784 
L 2906 1784 
L 2906 2591 
L 4781 2591 
L 4781 347 
z
" transform="scale(0.015625)"/>
      <path id="DejaVuSans-Bold-6f" d="M 2203 2784 
Q 1831 2784 1636 2517 
Q 1441 2250 1441 1747 
Q 1441 1244 1636 976 
Q 1831 709 2203 709 
Q 2569 709 2762 976 
Q 2956 1244 2956 1747 
Q 2956 2250 2762 2517 
Q 2569 2784 2203 2784 
z
M 2203 3584 
Q 3106 3584 3614 3096 
Q 4122 2609 4122 1747 
Q 4122 884 3614 396 
Q 3106 -91 2203 -91 
Q 1297 -91 786 396 
Q 275 884 275 1747 
Q 275 2609 786 3096 
Q 1297 3584 2203 3584 
z
" transform="scale(0.015625)"/>
      <path id="DejaVuSans-Bold-76" d="M 97 3500 
L 1216 3500 
L 2088 1081 
L 2956 3500 
L 4078 3500 
L 2700 0 
L 1472 0 
L 97 3500 
z
" transform="scale(0.015625)"/>
      <path id="DejaVuSans-Bold-6e" d="M 4056 2131 
L 4056 0 
L 2931 0 
L 2931 347 
L 2931 1631 
Q 2931 2084 2911 2256 
Q 2891 2428 2841 2509 
Q 2775 2619 2662 2680 
Q 2550 2741 2406 2741 
Q 2056 2741 1856 2470 
Q 1656 2200 1656 1722 
L 1656 0 
L 538 0 
L 538 3500 
L 1656 3500 
L 1656 2988 
Q 1909 3294 2193 3439 
Q 2478 3584 2822 3584 
Q 3428 3584 3742 3212 
Q 4056 2841 4056 2131 
z
" transform="scale(0.015625)"/>
      <path id="DejaVuSans-Bold-61" d="M 2106 1575 
Q 1756 1575 1579 1456 
Q 1403 1338 1403 1106 
Q 1403 894 1545 773 
Q 1688 653 1941 653 
Q 2256 653 2472 879 
Q 2688 1106 2688 1447 
L 2688 1575 
L 2106 1575 
z
M 3816 1997 
L 3816 0 
L 2688 0 
L 2688 519 
Q 2463 200 2181 54 
Q 1900 -91 1497 -91 
Q 953 -91 614 226 
Q 275 544 275 1050 
Q 275 1666 698 1953 
Q 1122 2241 2028 2241 
L 2688 2241 
L 2688 2328 
Q 2688 2594 2478 2717 
Q 2269 2841 1825 2841 
Q 1466 2841 1156 2769 
Q 847 2697 581 2553 
L 581 3406 
Q 941 3494 1303 3539 
Q 1666 3584 2028 3584 
Q 2975 3584 3395 3211 
Q 3816 2838 3816 1997 
z
" transform="scale(0.015625)"/>
      <path id="DejaVuSans-Bold-63" d="M 3366 3391 
L 3366 2478 
Q 3138 2634 2908 2709 
Q 2678 2784 2431 2784 
Q 1963 2784 1702 2511 
Q 1441 2238 1441 1747 
Q 1441 1256 1702 982 
Q 1963 709 2431 709 
Q 2694 709 2930 787 
Q 3166 866 3366 1019 
L 3366 103 
Q 3103 6 2833 -42 
Q 2563 -91 2291 -91 
Q 1344 -91 809 395 
Q 275 881 275 1747 
Q 275 2613 809 3098 
Q 1344 3584 2291 3584 
Q 2566 3584 2833 3536 
Q 3100 3488 3366 3391 
z
" transform="scale(0.015625)"/>
      <path id="DejaVuSans-Bold-57" d="M 191 4666 
L 1344 4666 
L 2150 1275 
L 2950 4666 
L 4109 4666 
L 4909 1275 
L 5716 4666 
L 6859 4666 
L 5759 0 
L 4372 0 
L 3525 3547 
L 2688 0 
L 1300 0 
L 191 4666 
z
" transform="scale(0.015625)"/>
      <path id="DejaVuSans-Bold-64" d="M 2919 2988 
L 2919 4863 
L 4044 4863 
L 4044 0 
L 2919 0 
L 2919 506 
Q 2688 197 2409 53 
Q 2131 -91 1766 -91 
Q 1119 -91 703 423 
Q 288 938 288 1747 
Q 288 2556 703 3070 
Q 1119 3584 1766 3584 
Q 2128 3584 2408 3439 
Q 2688 3294 2919 2988 
z
M 2181 722 
Q 2541 722 2730 984 
Q 2919 1247 2919 1747 
Q 2919 2247 2730 2509 
Q 2541 2772 2181 2772 
Q 1825 2772 1636 2509 
Q 1447 2247 1447 1747 
Q 1447 1247 1636 984 
Q 1825 722 2181 722 
z
" transform="scale(0.015625)"/>
      <path id="DejaVuSans-Bold-77" d="M 225 3500 
L 1313 3500 
L 1900 1088 
L 2491 3500 
L 3425 3500 
L 4013 1113 
L 4603 3500 
L 5691 3500 
L 4769 0 
L 3547 0 
L 2956 2406 
L 2369 0 
L 1147 0 
L 225 3500 
z
" transform="scale(0.015625)"/>
     </defs>
     <use xlink:href="#DejaVuSans-Bold-46"/>
     <use xlink:href="#DejaVuSans-Bold-69" x="68.310547"/>
     <use xlink:href="#DejaVuSans-Bold-67" x="102.587891"/>
     <use xlink:href="#DejaVuSans-Bold-75" x="174.169922"/>
     <use xlink:href="#DejaVuSans-Bold-72" x="245.361328"/>
     <use xlink:href="#DejaVuSans-Bold-65" x="294.677734"/>
     <use xlink:href="#DejaVuSans-Bold-20" x="362.5"/>
     <use xlink:href="#DejaVuSans-Bold-31" x="397.314453"/>
     <use xlink:href="#DejaVuSans-Bold-2e" x="466.894531"/>
     <use xlink:href="#DejaVuSans-Bold-20" x="504.882812"/>
     <use xlink:href="#DejaVuSans-Bold-54" x="539.697266"/>
     <use xlink:href="#DejaVuSans-Bold-68" x="607.910156"/>
     <use xlink:href="#DejaVuSans-Bold-65" x="679.101562"/>
     <use xlink:href="#DejaVuSans-Bold-20" x="746.923828"/>
     <use xlink:href="#DejaVuSans-Bold-47" x="781.738281"/>
     <use xlink:href="#DejaVuSans-Bold-6f" x="863.818359"/>
     <use xlink:href="#DejaVuSans-Bold-76" x="932.519531"/>
     <use xlink:href="#DejaVuSans-Bold-65" x="997.705078"/>
     <use xlink:href="#DejaVuSans-Bold-72" x="1065.527344"/>
     <use xlink:href="#DejaVuSans-Bold-6e" x="1114.84375"/>
     <use xlink:href="#DejaVuSans-Bold-61" x="1186.035156"/>
     <use xlink:href="#DejaVuSans-Bold-6e" x="1253.515625"/>
     <use xlink:href="#DejaVuSans-Bold-63" x="1324.707031"/>
     <use xlink:href="#DejaVuSans-Bold-65" x="1383.984375"/>
     <use xlink:href="#DejaVuSans-Bold-20" x="1451.806641"/>
     <use xlink:href="#DejaVuSans-Bold-57" x="1486.621094"/>
     <use xlink:href="#DejaVuSans-Bold-69" x="1596.923828"/>
     <use xlink:href="#DejaVuSans-Bold-6e" x="1631.201172"/>
     <use xlink:href="#DejaVuSans-Bold-64" x="1702.392578"/>
     <use xlink:href="#DejaVuSans-Bold-6f" x="1773.974609"/>
     <use xlink:href="#DejaVuSans-Bold-77" x="1842.675781"/>
    </g>
   </g>
   <g id="text_2">
    <!-- Risk accumulation timeline from fluent output to enforceable incident. -->
    <g style="fill: #aeb7ce" transform="translate(45.648 63.1872) scale(0.12 -0.12)">
     <defs>
      <path id="DejaVuSans-52" d="M 2841 2188 
Q 3044 2119 3236 1894 
Q 3428 1669 3622 1275 
L 4263 0 
L 3584 0 
L 2988 1197 
Q 2756 1666 2539 1819 
Q 2322 1972 1947 1972 
L 1259 1972 
L 1259 0 
L 628 0 
L 628 4666 
L 2053 4666 
Q 2853 4666 3247 4331 
Q 3641 3997 3641 3322 
Q 3641 2881 3436 2590 
Q 3231 2300 2841 2188 
z
M 1259 4147 
L 1259 2491 
L 2053 2491 
Q 2509 2491 2742 2702 
Q 2975 2913 2975 3322 
Q 2975 3731 2742 3939 
Q 2509 4147 2053 4147 
L 1259 4147 
z
" transform="scale(0.015625)"/>
      <path id="DejaVuSans-69" d="M 603 3500 
L 1178 3500 
L 1178 0 
L 603 0 
L 603 3500 
z
M 603 4863 
L 1178 4863 
L 1178 4134 
L 603 4134 
L 603 4863 
z
" transform="scale(0.015625)"/>
      <path id="DejaVuSans-73" d="M 2834 3397 
L 2834 2853 
Q 2591 2978 2328 3040 
Q 2066 3103 1784 3103 
Q 1356 3103 1142 2972 
Q 928 2841 928 2578 
Q 928 2378 1081 2264 
Q 1234 2150 1697 2047 
L 1894 2003 
Q 2506 1872 2764 1633 
Q 3022 1394 3022 966 
Q 3022 478 2636 193 
Q 2250 -91 1575 -91 
Q 1294 -91 989 -36 
Q 684 19 347 128 
L 347 722 
Q 666 556 975 473 
Q 1284 391 1588 391 
Q 1994 391 2212 530 
Q 2431 669 2431 922 
Q 2431 1156 2273 1281 
Q 2116 1406 1581 1522 
L 1381 1569 
Q 847 1681 609 1914 
Q 372 2147 372 2553 
Q 372 3047 722 3315 
Q 1072 3584 1716 3584 
Q 2034 3584 2315 3537 
Q 2597 3491 2834 3397 
z
" transform="scale(0.015625)"/>
      <path id="DejaVuSans-6b" d="M 581 4863 
L 1159 4863 
L 1159 1991 
L 2875 3500 
L 3609 3500 
L 1753 1863 
L 3688 0 
L 2938 0 
L 1159 1709 
L 1159 0 
L 581 0 
L 581 4863 
z
" transform="scale(0.015625)"/>
      <path id="DejaVuSans-20" transform="scale(0.015625)"/>
      <path id="DejaVuSans-61" d="M 2194 1759 
Q 1497 1759 1228 1600 
Q 959 1441 959 1056 
Q 959 750 1161 570 
Q 1363 391 1709 391 
Q 2188 391 2477 730 
Q 2766 1069 2766 1631 
L 2766 1759 
L 2194 1759 
z
M 3341 1997 
L 3341 0 
L 2766 0 
L 2766 531 
Q 2569 213 2275 61 
Q 1981 -91 1556 -91 
Q 1019 -91 701 211 
Q 384 513 384 1019 
Q 384 1609 779 1909 
Q 1175 2209 1959 2209 
L 2766 2209 
L 2766 2266 
Q 2766 2663 2505 2880 
Q 2244 3097 1772 3097 
Q 1472 3097 1187 3025 
Q 903 2953 641 2809 
L 641 3341 
Q 956 3463 1253 3523 
Q 1550 3584 1831 3584 
Q 2591 3584 2966 3190 
Q 3341 2797 3341 1997 
z
" transform="scale(0.015625)"/>
      <path id="DejaVuSans-63" d="M 3122 3366 
L 3122 2828 
Q 2878 2963 2633 3030 
Q 2388 3097 2138 3097 
Q 1578 3097 1268 2742 
Q 959 2388 959 1747 
Q 959 1106 1268 751 
Q 1578 397 2138 397 
Q 2388 397 2633 464 
Q 2878 531 3122 666 
L 3122 134 
Q 2881 22 2623 -34 
Q 2366 -91 2075 -91 
Q 1284 -91 818 406 
Q 353 903 353 1747 
Q 353 2603 823 3093 
Q 1294 3584 2113 3584 
Q 2378 3584 2631 3529 
Q 2884 3475 3122 3366 
z
" transform="scale(0.015625)"/>
      <path id="DejaVuSans-75" d="M 544 1381 
L 544 3500 
L 1119 3500 
L 1119 1403 
Q 1119 906 1312 657 
Q 1506 409 1894 409 
Q 2359 409 2629 706 
Q 2900 1003 2900 1516 
L 2900 3500 
L 3475 3500 
L 3475 0 
L 2900 0 
L 2900 538 
Q 2691 219 2414 64 
Q 2138 -91 1772 -91 
Q 1169 -91 856 284 
Q 544 659 544 1381 
z
M 1991 3584 
L 1991 3584 
z
" transform="scale(0.015625)"/>
      <path id="DejaVuSans-6d" d="M 3328 2828 
Q 3544 3216 3844 3400 
Q 4144 3584 4550 3584 
Q 5097 3584 5394 3201 
Q 5691 2819 5691 2113 
L 5691 0 
L 5113 0 
L 5113 2094 
Q 5113 2597 4934 2840 
Q 4756 3084 4391 3084 
Q 3944 3084 3684 2787 
Q 3425 2491 3425 1978 
L 3425 0 
L 2847 0 
L 2847 2094 
Q 2847 2600 2669 2842 
Q 2491 3084 2119 3084 
Q 1678 3084 1418 2786 
Q 1159 2488 1159 1978 
L 1159 0 
L 581 0 
L 581 3500 
L 1159 3500 
L 1159 2956 
Q 1356 3278 1631 3431 
Q 1906 3584 2284 3584 
Q 2666 3584 2933 3390 
Q 3200 3197 3328 2828 
z
" transform="scale(0.015625)"/>
      <path id="DejaVuSans-6c" d="M 603 4863 
L 1178 4863 
L 1178 0 
L 603 0 
L 603 4863 
z
" transform="scale(0.015625)"/>
      <path id="DejaVuSans-74" d="M 1172 4494 
L 1172 3500 
L 2356 3500 
L 2356 3053 
L 1172 3053 
L 1172 1153 
Q 1172 725 1289 603 
Q 1406 481 1766 481 
L 2356 481 
L 2356 0 
L 1766 0 
Q 1100 0 847 248 
Q 594 497 594 1153 
L 594 3053 
L 172 3053 
L 172 3500 
L 594 3500 
L 594 4494 
L 1172 4494 
z
" transform="scale(0.015625)"/>
      <path id="DejaVuSans-6f" d="M 1959 3097 
Q 1497 3097 1228 2736 
Q 959 2375 959 1747 
Q 959 1119 1226 758 
Q 1494 397 1959 397 
Q 2419 397 2687 759 
Q 2956 1122 2956 1747 
Q 2956 2369 2687 2733 
Q 2419 3097 1959 3097 
z
M 1959 3584 
Q 2709 3584 3137 3096 
Q 3566 2609 3566 1747 
Q 3566 888 3137 398 
Q 2709 -91 1959 -91 
Q 1206 -91 779 398 
Q 353 888 353 1747 
Q 353 2609 779 3096 
Q 1206 3584 1959 3584 
z
" transform="scale(0.015625)"/>
      <path id="DejaVuSans-6e" d="M 3513 2113 
L 3513 0 
L 2938 0 
L 2938 2094 
Q 2938 2591 2744 2837 
Q 2550 3084 2163 3084 
Q 1697 3084 1428 2787 
Q 1159 2491 1159 1978 
L 1159 0 
L 581 0 
L 581 3500 
L 1159 3500 
L 1159 2956 
Q 1366 3272 1645 3428 
Q 1925 3584 2291 3584 
Q 2894 3584 3203 3211 
Q 3513 2838 3513 2113 
z
" transform="scale(0.015625)"/>
      <path id="DejaVuSans-65" d="M 3597 1894 
L 3597 1613 
L 953 1613 
Q 991 1019 1311 708 
Q 1631 397 2203 397 
Q 2534 397 2845 478 
Q 3156 559 3463 722 
L 3463 178 
Q 3153 47 2828 -22 
Q 2503 -91 2169 -91 
Q 1331 -91 842 396 
Q 353 884 353 1716 
Q 353 2575 817 3079 
Q 1281 3584 2069 3584 
Q 2775 3584 3186 3129 
Q 3597 2675 3597 1894 
z
M 3022 2063 
Q 3016 2534 2758 2815 
Q 2500 3097 2075 3097 
Q 1594 3097 1305 2825 
Q 1016 2553 972 2059 
L 3022 2063 
z
" transform="scale(0.015625)"/>
      <path id="DejaVuSans-66" d="M 2375 4863 
L 2375 4384 
L 1825 4384 
Q 1516 4384 1395 4259 
Q 1275 4134 1275 3809 
L 1275 3500 
L 2222 3500 
L 2222 3053 
L 1275 3053 
L 1275 0 
L 697 0 
L 697 3053 
L 147 3053 
L 147 3500 
L 697 3500 
L 697 3744 
Q 697 4328 969 4595 
Q 1241 4863 1831 4863 
L 2375 4863 
z
" transform="scale(0.015625)"/>
      <path id="DejaVuSans-72" d="M 2631 2963 
Q 2534 3019 2420 3045 
Q 2306 3072 2169 3072 
Q 1681 3072 1420 2755 
Q 1159 2438 1159 1844 
L 1159 0 
L 581 0 
L 581 3500 
L 1159 3500 
L 1159 2956 
Q 1341 3275 1631 3429 
Q 1922 3584 2338 3584 
Q 2397 3584 2469 3576 
Q 2541 3569 2628 3553 
L 2631 2963 
z
" transform="scale(0.015625)"/>
      <path id="DejaVuSans-70" d="M 1159 525 
L 1159 -1331 
L 581 -1331 
L 581 3500 
L 1159 3500 
L 1159 2969 
Q 1341 3281 1617 3432 
Q 1894 3584 2278 3584 
Q 2916 3584 3314 3078 
Q 3713 2572 3713 1747 
Q 3713 922 3314 415 
Q 2916 -91 2278 -91 
Q 1894 -91 1617 61 
Q 1341 213 1159 525 
z
M 3116 1747 
Q 3116 2381 2855 2742 
Q 2594 3103 2138 3103 
Q 1681 3103 1420 2742 
Q 1159 2381 1159 1747 
Q 1159 1113 1420 752 
Q 1681 391 2138 391 
Q 2594 391 2855 752 
Q 3116 1113 3116 1747 
z
" transform="scale(0.015625)"/>
      <path id="DejaVuSans-62" d="M 3116 1747 
Q 3116 2381 2855 2742 
Q 2594 3103 2138 3103 
Q 1681 3103 1420 2742 
Q 1159 2381 1159 1747 
Q 1159 1113 1420 752 
Q 1681 391 2138 391 
Q 2594 391 2855 752 
Q 3116 1113 3116 1747 
z
M 1159 2969 
Q 1341 3281 1617 3432 
Q 1894 3584 2278 3584 
Q 2916 3584 3314 3078 
Q 3713 2572 3713 1747 
Q 3713 922 3314 415 
Q 2916 -91 2278 -91 
Q 1894 -91 1617 61 
Q 1341 213 1159 525 
L 1159 0 
L 581 0 
L 581 4863 
L 1159 4863 
L 1159 2969 
z
" transform="scale(0.015625)"/>
      <path id="DejaVuSans-64" d="M 2906 2969 
L 2906 4863 
L 3481 4863 
L 3481 0 
L 2906 0 
L 2906 525 
Q 2725 213 2448 61 
Q 2172 -91 1784 -91 
Q 1150 -91 751 415 
Q 353 922 353 1747 
Q 353 2572 751 3078 
Q 1150 3584 1784 3584 
Q 2172 3584 2448 3432 
Q 2725 3281 2906 2969 
z
M 947 1747 
Q 947 1113 1208 752 
Q 1469 391 1925 391 
Q 2381 391 2643 752 
Q 2906 1113 2906 1747 
Q 2906 2381 2643 2742 
Q 2381 3103 1925 3103 
Q 1469 3103 1208 2742 
Q 947 2381 947 1747 
z
" transform="scale(0.015625)"/>
      <path id="DejaVuSans-2e" d="M 684 794 
L 1344 794 
L 1344 0 
L 684 0 
L 684 794 
z
" transform="scale(0.015625)"/>
     </defs>
     <use xlink:href="#DejaVuSans-52"/>
     <use xlink:href="#DejaVuSans-69" x="69.482422"/>
     <use xlink:href="#DejaVuSans-73" x="97.265625"/>
     <use xlink:href="#DejaVuSans-6b" x="149.365234"/>
     <use xlink:href="#DejaVuSans-20" x="207.275391"/>
     <use xlink:href="#DejaVuSans-61" x="239.0625"/>
     <use xlink:href="#DejaVuSans-63" x="300.341797"/>
     <use xlink:href="#DejaVuSans-63" x="355.322266"/>
     <use xlink:href="#DejaVuSans-75" x="410.302734"/>
     <use xlink:href="#DejaVuSans-6d" x="473.681641"/>
     <use xlink:href="#DejaVuSans-75" x="571.09375"/>
     <use xlink:href="#DejaVuSans-6c" x="634.472656"/>
     <use xlink:href="#DejaVuSans-61" x="662.255859"/>
     <use xlink:href="#DejaVuSans-74" x="723.535156"/>
     <use xlink:href="#DejaVuSans-69" x="762.744141"/>
     <use xlink:href="#DejaVuSans-6f" x="790.527344"/>
     <use xlink:href="#DejaVuSans-6e" x="851.708984"/>
     <use xlink:href="#DejaVuSans-20" x="915.087891"/>
     <use xlink:href="#DejaVuSans-74" x="946.875"/>
     <use xlink:href="#DejaVuSans-69" x="986.083984"/>
     <use xlink:href="#DejaVuSans-6d" x="1013.867188"/>
     <use xlink:href="#DejaVuSans-65" x="1111.279297"/>
     <use xlink:href="#DejaVuSans-6c" x="1172.802734"/>
     <use xlink:href="#DejaVuSans-69" x="1200.585938"/>
     <use xlink:href="#DejaVuSans-6e" x="1228.369141"/>
     <use xlink:href="#DejaVuSans-65" x="1291.748047"/>
     <use xlink:href="#DejaVuSans-20" x="1353.271484"/>
     <use xlink:href="#DejaVuSans-66" x="1385.058594"/>
     <use xlink:href="#DejaVuSans-72" x="1420.263672"/>
     <use xlink:href="#DejaVuSans-6f" x="1459.126953"/>
     <use xlink:href="#DejaVuSans-6d" x="1520.308594"/>
     <use xlink:href="#DejaVuSans-20" x="1617.720703"/>
     <use xlink:href="#DejaVuSans-66" x="1649.507812"/>
     <use xlink:href="#DejaVuSans-6c" x="1684.712891"/>
     <use xlink:href="#DejaVuSans-75" x="1712.496094"/>
     <use xlink:href="#DejaVuSans-65" x="1775.875"/>
     <use xlink:href="#DejaVuSans-6e" x="1837.398438"/>
     <use xlink:href="#DejaVuSans-74" x="1900.777344"/>
     <use xlink:href="#DejaVuSans-20" x="1939.986328"/>
     <use xlink:href="#DejaVuSans-6f" x="1971.773438"/>
     <use xlink:href="#DejaVuSans-75" x="2032.955078"/>
     <use xlink:href="#DejaVuSans-74" x="2096.333984"/>
     <use xlink:href="#DejaVuSans-70" x="2135.542969"/>
     <use xlink:href="#DejaVuSans-75" x="2199.019531"/>
     <use xlink:href="#DejaVuSans-74" x="2262.398438"/>
     <use xlink:href="#DejaVuSans-20" x="2301.607422"/>
     <use xlink:href="#DejaVuSans-74" x="2333.394531"/>
     <use xlink:href="#DejaVuSans-6f" x="2372.603516"/>
     <use xlink:href="#DejaVuSans-20" x="2433.785156"/>
     <use xlink:href="#DejaVuSans-65" x="2465.572266"/>
     <use xlink:href="#DejaVuSans-6e" x="2527.095703"/>
     <use xlink:href="#DejaVuSans-66" x="2590.474609"/>
     <use xlink:href="#DejaVuSans-6f" x="2625.679688"/>
     <use xlink:href="#DejaVuSans-72" x="2686.861328"/>
     <use xlink:href="#DejaVuSans-63" x="2725.724609"/>
     <use xlink:href="#DejaVuSans-65" x="2780.705078"/>
     <use xlink:href="#DejaVuSans-61" x="2842.228516"/>
     <use xlink:href="#DejaVuSans-62" x="2903.507812"/>
     <use xlink:href="#DejaVuSans-6c" x="2966.984375"/>
     <use xlink:href="#DejaVuSans-65" x="2994.767578"/>
     <use xlink:href="#DejaVuSans-20" x="3056.291016"/>
     <use xlink:href="#DejaVuSans-69" x="3088.078125"/>
     <use xlink:href="#DejaVuSans-6e" x="3115.861328"/>
     <use xlink:href="#DejaVuSans-63" x="3179.240234"/>
     <use xlink:href="#DejaVuSans-69" x="3234.220703"/>
     <use xlink:href="#DejaVuSans-64" x="3262.003906"/>
     <use xlink:href="#DejaVuSans-65" x="3325.480469"/>
     <use xlink:href="#DejaVuSans-6e" x="3387.003906"/>
     <use xlink:href="#DejaVuSans-74" x="3450.382812"/>
     <use xlink:href="#DejaVuSans-2e" x="3489.591797"/>
    </g>
   </g>
   <g id="text_3">
    <!-- A -->
    <g style="fill: #e9eefc" transform="translate(80.838469 194.789135) scale(0.1 -0.1)">
     <defs>
      <path id="DejaVuSans-Bold-41" d="M 3419 850 
L 1538 850 
L 1241 0 
L 31 0 
L 1759 4666 
L 3194 4666 
L 4922 0 
L 3713 0 
L 3419 850 
z
M 1838 1716 
L 3116 1716 
L 2478 3572 
L 1838 1716 
z
" transform="scale(0.015625)"/>
     </defs>
     <use xlink:href="#DejaVuSans-Bold-41"/>
    </g>
   </g>
   <g id="text_4">
    <!-- Model fluency + -->
    <g style="fill: #e9eefc" transform="translate(83.736762 241.906916) scale(0.11 -0.11)">
     <defs>
      <path id="DejaVuSans-4d" d="M 628 4666 
L 1569 4666 
L 2759 1491 
L 3956 4666 
L 4897 4666 
L 4897 0 
L 4281 0 
L 4281 4097 
L 3078 897 
L 2444 897 
L 1241 4097 
L 1241 0 
L 628 0 
L 628 4666 
z
" transform="scale(0.015625)"/>
      <path id="DejaVuSans-79" d="M 2059 -325 
Q 1816 -950 1584 -1140 
Q 1353 -1331 966 -1331 
L 506 -1331 
L 506 -850 
L 844 -850 
Q 1081 -850 1212 -737 
Q 1344 -625 1503 -206 
L 1606 56 
L 191 3500 
L 800 3500 
L 1894 763 
L 2988 3500 
L 3597 3500 
L 2059 -325 
z
" transform="scale(0.015625)"/>
      <path id="DejaVuSans-2b" d="M 2944 4013 
L 2944 2272 
L 4684 2272 
L 4684 1741 
L 2944 1741 
L 2944 0 
L 2419 0 
L 2419 1741 
L 678 1741 
L 678 2272 
L 2419 2272 
L 2419 4013 
L 2944 4013 
z
" transform="scale(0.015625)"/>
     </defs>
     <use xlink:href="#DejaVuSans-4d"/>
     <use xlink:href="#DejaVuSans-6f" x="86.279297"/>
     <use xlink:href="#DejaVuSans-64" x="147.460938"/>
     <use xlink:href="#DejaVuSans-65" x="210.9375"/>
     <use xlink:href="#DejaVuSans-6c" x="272.460938"/>
     <use xlink:href="#DejaVuSans-20" x="300.244141"/>
     <use xlink:href="#DejaVuSans-66" x="332.03125"/>
     <use xlink:href="#DejaVuSans-6c" x="367.236328"/>
     <use xlink:href="#DejaVuSans-75" x="395.019531"/>
     <use xlink:href="#DejaVuSans-65" x="458.398438"/>
     <use xlink:href="#DejaVuSans-6e" x="519.921875"/>
     <use xlink:href="#DejaVuSans-63" x="583.300781"/>
     <use xlink:href="#DejaVuSans-79" x="638.28125"/>
     <use xlink:href="#DejaVuSans-20" x="697.460938"/>
     <use xlink:href="#DejaVuSans-2b" x="729.248047"/>
    </g>
    <!-- confidence cues -->
    <g style="fill: #e9eefc" transform="translate(83.839028 254.224509) scale(0.11 -0.11)">
     <use xlink:href="#DejaVuSans-63"/>
     <use xlink:href="#DejaVuSans-6f" x="54.980469"/>
     <use xlink:href="#DejaVuSans-6e" x="116.162109"/>
     <use xlink:href="#DejaVuSans-66" x="179.541016"/>
     <use xlink:href="#DejaVuSans-69" x="214.746094"/>
     <use xlink:href="#DejaVuSans-64" x="242.529297"/>
     <use xlink:href="#DejaVuSans-65" x="306.005859"/>
     <use xlink:href="#DejaVuSans-6e" x="367.529297"/>
     <use xlink:href="#DejaVuSans-63" x="430.908203"/>
     <use xlink:href="#DejaVuSans-65" x="485.888672"/>
     <use xlink:href="#DejaVuSans-20" x="547.412109"/>
     <use xlink:href="#DejaVuSans-63" x="579.199219"/>
     <use xlink:href="#DejaVuSans-75" x="634.179688"/>
     <use xlink:href="#DejaVuSans-65" x="697.558594"/>
     <use xlink:href="#DejaVuSans-73" x="759.082031"/>
    </g>
   </g>
   <g id="text_5">
    <!-- B -->
    <g style="fill: #e9eefc" transform="translate(226.981462 194.789135) scale(0.1 -0.1)">
     <defs>
      <path id="DejaVuSans-Bold-42" d="M 2456 2859 
Q 2741 2859 2887 2984 
Q 3034 3109 3034 3353 
Q 3034 3594 2887 3720 
Q 2741 3847 2456 3847 
L 1791 3847 
L 1791 2859 
L 2456 2859 
z
M 2497 819 
Q 2859 819 3042 972 
Q 3225 1125 3225 1434 
Q 3225 1738 3044 1889 
Q 2863 2041 2497 2041 
L 1791 2041 
L 1791 819 
L 2497 819 
z
M 3616 2497 
Q 4003 2384 4215 2081 
Q 4428 1778 4428 1338 
Q 4428 663 3972 331 
Q 3516 0 2584 0 
L 588 0 
L 588 4666 
L 2394 4666 
Q 3366 4666 3802 4372 
Q 4238 4078 4238 3431 
Q 4238 3091 4078 2852 
Q 3919 2613 3616 2497 
z
" transform="scale(0.015625)"/>
     </defs>
     <use xlink:href="#DejaVuSans-Bold-42"/>
    </g>
   </g>
   <g id="text_6">
    <!-- Human deference -->
    <g style="fill: #e9eefc" transform="translate(225.344678 241.906916) scale(0.11 -0.11)">
     <defs>
      <path id="DejaVuSans-48" d="M 628 4666 
L 1259 4666 
L 1259 2753 
L 3553 2753 
L 3553 4666 
L 4184 4666 
L 4184 0 
L 3553 0 
L 3553 2222 
L 1259 2222 
L 1259 0 
L 628 0 
L 628 4666 
z
" transform="scale(0.015625)"/>
     </defs>
     <use xlink:href="#DejaVuSans-48"/>
     <use xlink:href="#DejaVuSans-75" x="75.195312"/>
     <use xlink:href="#DejaVuSans-6d" x="138.574219"/>
     <use xlink:href="#DejaVuSans-61" x="235.986328"/>
     <use xlink:href="#DejaVuSans-6e" x="297.265625"/>
     <use xlink:href="#DejaVuSans-20" x="360.644531"/>
     <use xlink:href="#DejaVuSans-64" x="392.431641"/>
     <use xlink:href="#DejaVuSans-65" x="455.908203"/>
     <use xlink:href="#DejaVuSans-66" x="517.431641"/>
     <use xlink:href="#DejaVuSans-65" x="552.636719"/>
     <use xlink:href="#DejaVuSans-72" x="614.160156"/>
     <use xlink:href="#DejaVuSans-65" x="653.023438"/>
     <use xlink:href="#DejaVuSans-6e" x="714.546875"/>
     <use xlink:href="#DejaVuSans-63" x="777.925781"/>
     <use xlink:href="#DejaVuSans-65" x="832.90625"/>
    </g>
    <!-- begins -->
    <g style="fill: #e9eefc" transform="translate(256.29335 254.224509) scale(0.11 -0.11)">
     <defs>
      <path id="DejaVuSans-67" d="M 2906 1791 
Q 2906 2416 2648 2759 
Q 2391 3103 1925 3103 
Q 1463 3103 1205 2759 
Q 947 2416 947 1791 
Q 947 1169 1205 825 
Q 1463 481 1925 481 
Q 2391 481 2648 825 
Q 2906 1169 2906 1791 
z
M 3481 434 
Q 3481 -459 3084 -895 
Q 2688 -1331 1869 -1331 
Q 1566 -1331 1297 -1286 
Q 1028 -1241 775 -1147 
L 775 -588 
Q 1028 -725 1275 -790 
Q 1522 -856 1778 -856 
Q 2344 -856 2625 -561 
Q 2906 -266 2906 331 
L 2906 616 
Q 2728 306 2450 153 
Q 2172 0 1784 0 
Q 1141 0 747 490 
Q 353 981 353 1791 
Q 353 2603 747 3093 
Q 1141 3584 1784 3584 
Q 2172 3584 2450 3431 
Q 2728 3278 2906 2969 
L 2906 3500 
L 3481 3500 
L 3481 434 
z
" transform="scale(0.015625)"/>
     </defs>
     <use xlink:href="#DejaVuSans-62"/>
     <use xlink:href="#DejaVuSans-65" x="63.476562"/>
     <use xlink:href="#DejaVuSans-67" x="125"/>
     <use xlink:href="#DejaVuSans-69" x="188.476562"/>
     <use xlink:href="#DejaVuSans-6e" x="216.259766"/>
     <use xlink:href="#DejaVuSans-73" x="279.638672"/>
    </g>
   </g>
   <g id="text_7">
    <!-- C -->
    <g style="fill: #e9eefc" transform="translate(373.207269 194.789135) scale(0.1 -0.1)">
     <defs>
      <path id="DejaVuSans-Bold-43" d="M 4288 256 
Q 3956 84 3597 -3 
Q 3238 -91 2847 -91 
Q 1681 -91 1000 561 
Q 319 1213 319 2328 
Q 319 3447 1000 4098 
Q 1681 4750 2847 4750 
Q 3238 4750 3597 4662 
Q 3956 4575 4288 4403 
L 4288 3438 
Q 3953 3666 3628 3772 
Q 3303 3878 2944 3878 
Q 2300 3878 1931 3465 
Q 1563 3053 1563 2328 
Q 1563 1606 1931 1193 
Q 2300 781 2944 781 
Q 3303 781 3628 887 
Q 3953 994 4288 1222 
L 4288 256 
z
" transform="scale(0.015625)"/>
     </defs>
     <use xlink:href="#DejaVuSans-Bold-43"/>
    </g>
   </g>
   <g id="text_8">
    <!-- Behavioral drift -->
    <g style="fill: #e9eefc" transform="translate(378.277437 241.906916) scale(0.11 -0.11)">
     <defs>
      <path id="DejaVuSans-42" d="M 1259 2228 
L 1259 519 
L 2272 519 
Q 2781 519 3026 730 
Q 3272 941 3272 1375 
Q 3272 1813 3026 2020 
Q 2781 2228 2272 2228 
L 1259 2228 
z
M 1259 4147 
L 1259 2741 
L 2194 2741 
Q 2656 2741 2882 2914 
Q 3109 3088 3109 3444 
Q 3109 3797 2882 3972 
Q 2656 4147 2194 4147 
L 1259 4147 
z
M 628 4666 
L 2241 4666 
Q 2963 4666 3353 4366 
Q 3744 4066 3744 3513 
Q 3744 3084 3544 2831 
Q 3344 2578 2956 2516 
Q 3422 2416 3680 2098 
Q 3938 1781 3938 1306 
Q 3938 681 3513 340 
Q 3088 0 2303 0 
L 628 0 
L 628 4666 
z
" transform="scale(0.015625)"/>
      <path id="DejaVuSans-68" d="M 3513 2113 
L 3513 0 
L 2938 0 
L 2938 2094 
Q 2938 2591 2744 2837 
Q 2550 3084 2163 3084 
Q 1697 3084 1428 2787 
Q 1159 2491 1159 1978 
L 1159 0 
L 581 0 
L 581 4863 
L 1159 4863 
L 1159 2956 
Q 1366 3272 1645 3428 
Q 1925 3584 2291 3584 
Q 2894 3584 3203 3211 
Q 3513 2838 3513 2113 
z
" transform="scale(0.015625)"/>
      <path id="DejaVuSans-76" d="M 191 3500 
L 800 3500 
L 1894 563 
L 2988 3500 
L 3597 3500 
L 2284 0 
L 1503 0 
L 191 3500 
z
" transform="scale(0.015625)"/>
     </defs>
     <use xlink:href="#DejaVuSans-42"/>
     <use xlink:href="#DejaVuSans-65" x="68.603516"/>
     <use xlink:href="#DejaVuSans-68" x="130.126953"/>
     <use xlink:href="#DejaVuSans-61" x="193.505859"/>
     <use xlink:href="#DejaVuSans-76" x="254.785156"/>
     <use xlink:href="#DejaVuSans-69" x="313.964844"/>
     <use xlink:href="#DejaVuSans-6f" x="341.748047"/>
     <use xlink:href="#DejaVuSans-72" x="402.929688"/>
     <use xlink:href="#DejaVuSans-61" x="444.042969"/>
     <use xlink:href="#DejaVuSans-6c" x="505.322266"/>
     <use xlink:href="#DejaVuSans-20" x="533.105469"/>
     <use xlink:href="#DejaVuSans-64" x="564.892578"/>
     <use xlink:href="#DejaVuSans-72" x="628.369141"/>
     <use xlink:href="#DejaVuSans-69" x="669.482422"/>
     <use xlink:href="#DejaVuSans-66" x="697.265625"/>
     <use xlink:href="#DejaVuSans-74" x="730.720703"/>
    </g>
    <!-- (pattern repeats) -->
    <g style="fill: #e9eefc" transform="translate(373.586109 254.224509) scale(0.11 -0.11)">
     <defs>
      <path id="DejaVuSans-28" d="M 1984 4856 
Q 1566 4138 1362 3434 
Q 1159 2731 1159 2009 
Q 1159 1288 1364 580 
Q 1569 -128 1984 -844 
L 1484 -844 
Q 1016 -109 783 600 
Q 550 1309 550 2009 
Q 550 2706 781 3412 
Q 1013 4119 1484 4856 
L 1984 4856 
z
" transform="scale(0.015625)"/>
      <path id="DejaVuSans-29" d="M 513 4856 
L 1013 4856 
Q 1481 4119 1714 3412 
Q 1947 2706 1947 2009 
Q 1947 1309 1714 600 
Q 1481 -109 1013 -844 
L 513 -844 
Q 928 -128 1133 580 
Q 1338 1288 1338 2009 
Q 1338 2731 1133 3434 
Q 928 4138 513 4856 
z
" transform="scale(0.015625)"/>
     </defs>
     <use xlink:href="#DejaVuSans-28"/>
     <use xlink:href="#DejaVuSans-70" x="39.013672"/>
     <use xlink:href="#DejaVuSans-61" x="102.490234"/>
     <use xlink:href="#DejaVuSans-74" x="163.769531"/>
     <use xlink:href="#DejaVuSans-74" x="202.978516"/>
     <use xlink:href="#DejaVuSans-65" x="242.1875"/>
     <use xlink:href="#DejaVuSans-72" x="303.710938"/>
     <use xlink:href="#DejaVuSans-6e" x="343.074219"/>
     <use xlink:href="#DejaVuSans-20" x="406.453125"/>
     <use xlink:href="#DejaVuSans-72" x="438.240234"/>
     <use xlink:href="#DejaVuSans-65" x="477.103516"/>
     <use xlink:href="#DejaVuSans-70" x="538.626953"/>
     <use xlink:href="#DejaVuSans-65" x="602.103516"/>
     <use xlink:href="#DejaVuSans-61" x="663.626953"/>
     <use xlink:href="#DejaVuSans-74" x="724.90625"/>
     <use xlink:href="#DejaVuSans-73" x="764.115234"/>
     <use xlink:href="#DejaVuSans-29" x="816.214844"/>
    </g>
   </g>
   <g id="text_9">
    <!-- D -->
    <g style="fill: #e9eefc" transform="translate(518.810419 194.789135) scale(0.1 -0.1)">
     <defs>
      <path id="DejaVuSans-Bold-44" d="M 1791 3756 
L 1791 909 
L 2222 909 
Q 2959 909 3348 1275 
Q 3738 1641 3738 2338 
Q 3738 3031 3350 3393 
Q 2963 3756 2222 3756 
L 1791 3756 
z
M 588 4666 
L 1856 4666 
Q 2919 4666 3439 4514 
Q 3959 4363 4331 4000 
Q 4659 3684 4818 3271 
Q 4978 2859 4978 2338 
Q 4978 1809 4818 1395 
Q 4659 981 4331 666 
Q 3956 303 3431 151 
Q 2906 0 1856 0 
L 588 0 
L 588 4666 
z
" transform="scale(0.015625)"/>
     </defs>
     <use xlink:href="#DejaVuSans-Bold-44"/>
    </g>
   </g>
   <g id="text_10">
    <!-- Escalation -->
    <g style="fill: #e9eefc" transform="translate(538.539806 241.906916) scale(0.11 -0.11)">
     <defs>
      <path id="DejaVuSans-45" d="M 628 4666 
L 3578 4666 
L 3578 4134 
L 1259 4134 
L 1259 2753 
L 3481 2753 
L 3481 2222 
L 1259 2222 
L 1259 531 
L 3634 531 
L 3634 0 
L 628 0 
L 628 4666 
z
" transform="scale(0.015625)"/>
     </defs>
     <use xlink:href="#DejaVuSans-45"/>
     <use xlink:href="#DejaVuSans-73" x="63.183594"/>
     <use xlink:href="#DejaVuSans-63" x="115.283203"/>
     <use xlink:href="#DejaVuSans-61" x="170.263672"/>
     <use xlink:href="#DejaVuSans-6c" x="231.542969"/>
     <use xlink:href="#DejaVuSans-61" x="259.326172"/>
     <use xlink:href="#DejaVuSans-74" x="320.605469"/>
     <use xlink:href="#DejaVuSans-69" x="359.814453"/>
     <use xlink:href="#DejaVuSans-6f" x="387.597656"/>
     <use xlink:href="#DejaVuSans-6e" x="448.779297"/>
    </g>
    <!-- (stakes increase) -->
    <g style="fill: #e9eefc" transform="translate(519.863009 254.224509) scale(0.11 -0.11)">
     <use xlink:href="#DejaVuSans-28"/>
     <use xlink:href="#DejaVuSans-73" x="39.013672"/>
     <use xlink:href="#DejaVuSans-74" x="91.113281"/>
     <use xlink:href="#DejaVuSans-61" x="130.322266"/>
     <use xlink:href="#DejaVuSans-6b" x="191.601562"/>
     <use xlink:href="#DejaVuSans-65" x="245.886719"/>
     <use xlink:href="#DejaVuSans-73" x="307.410156"/>
     <use xlink:href="#DejaVuSans-20" x="359.509766"/>
     <use xlink:href="#DejaVuSans-69" x="391.296875"/>
     <use xlink:href="#DejaVuSans-6e" x="419.080078"/>
     <use xlink:href="#DejaVuSans-63" x="482.458984"/>
     <use xlink:href="#DejaVuSans-72" x="537.439453"/>
     <use xlink:href="#DejaVuSans-65" x="576.302734"/>
     <use xlink:href="#DejaVuSans-61" x="637.826172"/>
     <use xlink:href="#DejaVuSans-73" x="699.105469"/>
     <use xlink:href="#DejaVuSans-65" x="751.205078"/>
     <use xlink:href="#DejaVuSans-29" x="812.728516"/>
    </g>
   </g>
   <g id="text_11">
    <!-- E -->
    <g style="fill: #e9eefc" transform="translate(665.629975 194.789135) scale(0.1 -0.1)">
     <defs>
      <path id="DejaVuSans-Bold-45" d="M 588 4666 
L 3834 4666 
L 3834 3756 
L 1791 3756 
L 1791 2888 
L 3713 2888 
L 3713 1978 
L 1791 1978 
L 1791 909 
L 3903 909 
L 3903 0 
L 588 0 
L 588 4666 
z
" transform="scale(0.015625)"/>
     </defs>
     <use xlink:href="#DejaVuSans-Bold-45"/>
    </g>
   </g>
   <g id="text_12">
    <!-- Policy breach / harm / -->
    <g style="fill: #e9eefc" transform="translate(653.006081 241.906916) scale(0.11 -0.11)">
     <defs>
      <path id="DejaVuSans-50" d="M 1259 4147 
L 1259 2394 
L 2053 2394 
Q 2494 2394 2734 2622 
Q 2975 2850 2975 3272 
Q 2975 3691 2734 3919 
Q 2494 4147 2053 4147 
L 1259 4147 
z
M 628 4666 
L 2053 4666 
Q 2838 4666 3239 4311 
Q 3641 3956 3641 3272 
Q 3641 2581 3239 2228 
Q 2838 1875 2053 1875 
L 1259 1875 
L 1259 0 
L 628 0 
L 628 4666 
z
" transform="scale(0.015625)"/>
      <path id="DejaVuSans-2f" d="M 1625 4666 
L 2156 4666 
L 531 -594 
L 0 -594 
L 1625 4666 
z
" transform="scale(0.015625)"/>
     </defs>
     <use xlink:href="#DejaVuSans-50"/>
     <use xlink:href="#DejaVuSans-6f" x="56.677734"/>
     <use xlink:href="#DejaVuSans-6c" x="117.859375"/>
     <use xlink:href="#DejaVuSans-69" x="145.642578"/>
     <use xlink:href="#DejaVuSans-63" x="173.425781"/>
     <use xlink:href="#DejaVuSans-79" x="228.40625"/>
     <use xlink:href="#DejaVuSans-20" x="287.585938"/>
     <use xlink:href="#DejaVuSans-62" x="319.373047"/>
     <use xlink:href="#DejaVuSans-72" x="382.849609"/>
     <use xlink:href="#DejaVuSans-65" x="421.712891"/>
     <use xlink:href="#DejaVuSans-61" x="483.236328"/>
     <use xlink:href="#DejaVuSans-63" x="544.515625"/>
     <use xlink:href="#DejaVuSans-68" x="599.496094"/>
     <use xlink:href="#DejaVuSans-20" x="662.875"/>
     <use xlink:href="#DejaVuSans-2f" x="694.662109"/>
     <use xlink:href="#DejaVuSans-20" x="728.353516"/>
     <use xlink:href="#DejaVuSans-68" x="760.140625"/>
     <use xlink:href="#DejaVuSans-61" x="823.519531"/>
     <use xlink:href="#DejaVuSans-72" x="884.798828"/>
     <use xlink:href="#DejaVuSans-6d" x="924.162109"/>
     <use xlink:href="#DejaVuSans-20" x="1021.574219"/>
     <use xlink:href="#DejaVuSans-2f" x="1053.361328"/>
    </g>
    <!-- complaint / enforcement -->
    <g style="fill: #e9eefc" transform="translate(645.037097 254.224509) scale(0.11 -0.11)">
     <use xlink:href="#DejaVuSans-63"/>
     <use xlink:href="#DejaVuSans-6f" x="54.980469"/>
     <use xlink:href="#DejaVuSans-6d" x="116.162109"/>
     <use xlink:href="#DejaVuSans-70" x="213.574219"/>
     <use xlink:href="#DejaVuSans-6c" x="277.050781"/>
     <use xlink:href="#DejaVuSans-61" x="304.833984"/>
     <use xlink:href="#DejaVuSans-69" x="366.113281"/>
     <use xlink:href="#DejaVuSans-6e" x="393.896484"/>
     <use xlink:href="#DejaVuSans-74" x="457.275391"/>
     <use xlink:href="#DejaVuSans-20" x="496.484375"/>
     <use xlink:href="#DejaVuSans-2f" x="528.271484"/>
     <use xlink:href="#DejaVuSans-20" x="561.962891"/>
     <use xlink:href="#DejaVuSans-65" x="593.75"/>
     <use xlink:href="#DejaVuSans-6e" x="655.273438"/>
     <use xlink:href="#DejaVuSans-66" x="718.652344"/>
     <use xlink:href="#DejaVuSans-6f" x="753.857422"/>
     <use xlink:href="#DejaVuSans-72" x="815.039062"/>
     <use xlink:href="#DejaVuSans-63" x="853.902344"/>
     <use xlink:href="#DejaVuSans-65" x="908.882812"/>
     <use xlink:href="#DejaVuSans-6d" x="970.40625"/>
     <use xlink:href="#DejaVuSans-65" x="1067.818359"/>
     <use xlink:href="#DejaVuSans-6e" x="1129.341797"/>
     <use xlink:href="#DejaVuSans-74" x="1192.720703"/>
    </g>
   </g>
   <g id="text_13">
    <!-- Interaction Timeline -->
    <g style="fill: #aeb7ce" transform="translate(342.218078 369.216) scale(0.11 -0.11)">
     <defs>
      <path id="DejaVuSans-49" d="M 628 4666 
L 1259 4666 
L 1259 0 
L 628 0 
L 628 4666 
z
" transform="scale(0.015625)"/>
      <path id="DejaVuSans-54" d="M -19 4666 
L 3928 4666 
L 3928 4134 
L 2272 4134 
L 2272 0 
L 1638 0 
L 1638 4134 
L -19 4134 
L -19 4666 
z
" transform="scale(0.015625)"/>
     </defs>
     <use xlink:href="#DejaVuSans-49"/>
     <use xlink:href="#DejaVuSans-6e" x="29.492188"/>
     <use xlink:href="#DejaVuSans-74" x="92.871094"/>
     <use xlink:href="#DejaVuSans-65" x="132.080078"/>
     <use xlink:href="#DejaVuSans-72" x="193.603516"/>
     <use xlink:href="#DejaVuSans-61" x="234.716797"/>
     <use xlink:href="#DejaVuSans-63" x="295.996094"/>
     <use xlink:href="#DejaVuSans-74" x="350.976562"/>
     <use xlink:href="#DejaVuSans-69" x="390.185547"/>
     <use xlink:href="#DejaVuSans-6f" x="417.96875"/>
     <use xlink:href="#DejaVuSans-6e" x="479.150391"/>
     <use xlink:href="#DejaVuSans-20" x="542.529297"/>
     <use xlink:href="#DejaVuSans-54" x="574.316406"/>
     <use xlink:href="#DejaVuSans-69" x="632.275391"/>
     <use xlink:href="#DejaVuSans-6d" x="660.058594"/>
     <use xlink:href="#DejaVuSans-65" x="757.470703"/>
     <use xlink:href="#DejaVuSans-6c" x="818.994141"/>
     <use xlink:href="#DejaVuSans-69" x="846.777344"/>
     <use xlink:href="#DejaVuSans-6e" x="874.560547"/>
     <use xlink:href="#DejaVuSans-65" x="937.939453"/>
    </g>
   </g>
   <g id="text_14">
    <!-- Intervention Window -->
    <g style="fill: #59d6c2" transform="translate(343.74525 105.3216) scale(0.13 -0.13)">
     <defs>
      <path id="DejaVuSans-Bold-49" d="M 588 4666 
L 1791 4666 
L 1791 0 
L 588 0 
L 588 4666 
z
" transform="scale(0.015625)"/>
      <path id="DejaVuSans-Bold-74" d="M 1759 4494 
L 1759 3500 
L 2913 3500 
L 2913 2700 
L 1759 2700 
L 1759 1216 
Q 1759 972 1856 886 
Q 1953 800 2241 800 
L 2816 800 
L 2816 0 
L 1856 0 
Q 1194 0 917 276 
Q 641 553 641 1216 
L 641 2700 
L 84 2700 
L 84 3500 
L 641 3500 
L 641 4494 
L 1759 4494 
z
" transform="scale(0.015625)"/>
     </defs>
     <use xlink:href="#DejaVuSans-Bold-49"/>
     <use xlink:href="#DejaVuSans-Bold-6e" x="37.207031"/>
     <use xlink:href="#DejaVuSans-Bold-74" x="108.398438"/>
     <use xlink:href="#DejaVuSans-Bold-65" x="156.201172"/>
     <use xlink:href="#DejaVuSans-Bold-72" x="224.023438"/>
     <use xlink:href="#DejaVuSans-Bold-76" x="273.339844"/>
     <use xlink:href="#DejaVuSans-Bold-65" x="338.525391"/>
     <use xlink:href="#DejaVuSans-Bold-6e" x="406.347656"/>
     <use xlink:href="#DejaVuSans-Bold-74" x="477.539062"/>
     <use xlink:href="#DejaVuSans-Bold-69" x="525.341797"/>
     <use xlink:href="#DejaVuSans-Bold-6f" x="559.619141"/>
     <use xlink:href="#DejaVuSans-Bold-6e" x="628.320312"/>
     <use xlink:href="#DejaVuSans-Bold-20" x="699.511719"/>
     <use xlink:href="#DejaVuSans-Bold-57" x="734.326172"/>
     <use xlink:href="#DejaVuSans-Bold-69" x="844.628906"/>
     <use xlink:href="#DejaVuSans-Bold-6e" x="878.90625"/>
     <use xlink:href="#DejaVuSans-Bold-64" x="950.097656"/>
     <use xlink:href="#DejaVuSans-Bold-6f" x="1021.679688"/>
     <use xlink:href="#DejaVuSans-Bold-77" x="1090.380859"/>
    </g>
   </g>
  </g>
 </g>
 <defs>
  <clipPath id="p3e2e943f19">
   <rect x="14.4" y="14.4" width="781.2" height="443.52"/>
  </clipPath>
 </defs>
</svg>
